<svg width="128" height="80" viewBox="0 0 128 80" fill="none" xmlns="http://www.w3.org/2000/svg">
<rect x="2" y="2" width="76" height="76" fill="white" stroke="black" stroke-width="4"/>
<path d="M87.7522 43.3C86.7122 43.3 85.7722 43.1 84.9322 42.7C84.0922 42.28 83.4222 41.73 82.9222 41.05C82.4422 40.35 82.2022 39.57 82.2022 38.71C82.2022 37.31 82.7622 36.2 83.8822 35.38C85.0222 34.54 86.5222 33.98 88.3822 33.7L92.4922 33.1V32.47C92.4922 31.63 92.2822 30.98 91.8622 30.52C91.4422 30.06 90.7222 29.83 89.7022 29.83C88.9822 29.83 88.3922 29.98 87.9322 30.28C87.4922 30.56 87.1622 30.94 86.9422 31.42C86.7822 31.68 86.5522 31.81 86.2522 31.81H83.8822C83.6622 31.81 83.4922 31.75 83.3722 31.63C83.2722 31.51 83.2222 31.35 83.2222 31.15C83.2422 30.83 83.3722 30.44 83.6122 29.98C83.8522 29.52 84.2322 29.08 84.7522 28.66C85.2722 28.22 85.9422 27.85 86.7622 27.55C87.5822 27.25 88.5722 27.1 89.7322 27.1C90.9922 27.1 92.0522 27.26 92.9122 27.58C93.7922 27.88 94.4922 28.29 95.0122 28.81C95.5322 29.33 95.9122 29.94 96.1522 30.64C96.3922 31.34 96.5122 32.08 96.5122 32.86V42.28C96.5122 42.48 96.4422 42.65 96.3022 42.79C96.1622 42.93 95.9922 43 95.7922 43H93.3622C93.1422 43 92.9622 42.93 92.8222 42.79C92.7022 42.65 92.6422 42.48 92.6422 42.28V41.11C92.3822 41.49 92.0322 41.85 91.5922 42.19C91.1522 42.51 90.6122 42.78 89.9722 43C89.3522 43.2 88.6122 43.3 87.7522 43.3ZM88.7722 40.45C89.4722 40.45 90.1022 40.3 90.6622 40C91.2422 39.7 91.6922 39.24 92.0122 38.62C92.3522 37.98 92.5222 37.18 92.5222 36.22V35.59L89.5222 36.07C88.3422 36.25 87.4622 36.54 86.8822 36.94C86.3022 37.34 86.0122 37.83 86.0122 38.41C86.0122 38.85 86.1422 39.23 86.4022 39.55C86.6822 39.85 87.0322 40.08 87.4522 40.24C87.8722 40.38 88.3122 40.45 88.7722 40.45ZM101.081 43C100.881 43 100.711 42.93 100.571 42.79C100.431 42.65 100.361 42.48 100.361 42.28V28.15C100.361 27.93 100.431 27.75 100.571 27.61C100.711 27.47 100.881 27.4 101.081 27.4H103.511C103.711 27.4 103.881 27.47 104.021 27.61C104.181 27.75 104.261 27.93 104.261 28.15V29.38C104.721 28.74 105.311 28.25 106.031 27.91C106.771 27.57 107.621 27.4 108.581 27.4H109.811C110.031 27.4 110.201 27.47 110.321 27.61C110.461 27.75 110.531 27.92 110.531 28.12V30.28C110.531 30.48 110.461 30.65 110.321 30.79C110.201 30.93 110.031 31 109.811 31H107.471C106.511 31 105.761 31.27 105.221 31.81C104.701 32.35 104.441 33.09 104.441 34.03V42.28C104.441 42.48 104.371 42.65 104.231 42.79C104.091 42.93 103.911 43 103.691 43H101.081ZM119.386 43.3C117.166 43.3 115.406 42.66 114.106 41.38C112.806 40.1 112.106 38.28 112.006 35.92C111.986 35.72 111.976 35.47 111.976 35.17C111.976 34.85 111.986 34.6 112.006 34.42C112.086 32.92 112.426 31.62 113.026 30.52C113.646 29.42 114.496 28.58 115.576 28C116.656 27.4 117.926 27.1 119.386 27.1C121.006 27.1 122.366 27.44 123.466 28.12C124.566 28.78 125.396 29.71 125.956 30.91C126.516 32.09 126.796 33.46 126.796 35.02V35.65C126.796 35.85 126.726 36.02 126.586 36.16C126.446 36.3 126.266 36.37 126.046 36.37H116.086C116.086 36.37 116.086 36.4 116.086 36.46C116.086 36.52 116.086 36.57 116.086 36.61C116.106 37.31 116.236 37.96 116.476 38.56C116.736 39.14 117.106 39.61 117.586 39.97C118.086 40.33 118.676 40.51 119.356 40.51C119.916 40.51 120.386 40.43 120.766 40.27C121.146 40.09 121.456 39.89 121.696 39.67C121.936 39.45 122.106 39.27 122.206 39.13C122.386 38.89 122.526 38.75 122.626 38.71C122.746 38.65 122.916 38.62 123.136 38.62H125.716C125.916 38.62 126.076 38.68 126.196 38.8C126.336 38.92 126.396 39.07 126.376 39.25C126.356 39.57 126.186 39.96 125.866 40.42C125.566 40.88 125.126 41.33 124.546 41.77C123.966 42.21 123.236 42.58 122.356 42.88C121.496 43.16 120.506 43.3 119.386 43.3ZM116.086 33.85H122.716V33.76C122.716 32.98 122.586 32.3 122.326 31.72C122.066 31.14 121.686 30.68 121.186 30.34C120.686 30 120.086 29.83 119.386 29.83C118.686 29.83 118.086 30 117.586 30.34C117.086 30.68 116.706 31.14 116.446 31.72C116.206 32.3 116.086 32.98 116.086 33.76V33.85Z" fill="black"/>
<path d="M27.63 43.3C25.77 43.3 24.21 43.03 22.95 42.49C21.71 41.93 20.76 41.21 20.1 40.33C19.46 39.43 19.12 38.49 19.08 37.51C19.08 37.33 19.14 37.18 19.26 37.06C19.38 36.94 19.53 36.88 19.71 36.88H22.38C22.64 36.88 22.83 36.94 22.95 37.06C23.09 37.16 23.21 37.29 23.31 37.45C23.43 37.83 23.66 38.21 24 38.59C24.34 38.95 24.8 39.25 25.38 39.49C25.98 39.73 26.73 39.85 27.63 39.85C29.07 39.85 30.14 39.61 30.84 39.13C31.56 38.65 31.92 38 31.92 37.18C31.92 36.6 31.73 36.14 31.35 35.8C30.97 35.44 30.38 35.12 29.58 34.84C28.8 34.54 27.76 34.23 26.46 33.91C24.96 33.55 23.7 33.12 22.68 32.62C21.68 32.1 20.92 31.45 20.4 30.67C19.9 29.89 19.65 28.9 19.65 27.7C19.65 26.54 19.96 25.51 20.58 24.61C21.22 23.71 22.12 23 23.28 22.48C24.46 21.96 25.86 21.7 27.48 21.7C28.78 21.7 29.93 21.88 30.93 22.24C31.93 22.58 32.76 23.04 33.42 23.62C34.08 24.18 34.58 24.79 34.92 25.45C35.28 26.09 35.47 26.72 35.49 27.34C35.49 27.5 35.43 27.65 35.31 27.79C35.21 27.91 35.06 27.97 34.86 27.97H32.07C31.91 27.97 31.75 27.93 31.59 27.85C31.43 27.77 31.3 27.62 31.2 27.4C31.08 26.78 30.69 26.25 30.03 25.81C29.37 25.37 28.52 25.15 27.48 25.15C26.4 25.15 25.53 25.35 24.87 25.75C24.21 26.15 23.88 26.77 23.88 27.61C23.88 28.17 24.04 28.64 24.36 29.02C24.7 29.38 25.23 29.7 25.95 29.98C26.69 30.26 27.66 30.56 28.86 30.88C30.56 31.26 31.95 31.7 33.03 32.2C34.11 32.7 34.9 33.34 35.4 34.12C35.9 34.88 36.15 35.85 36.15 37.03C36.15 38.35 35.79 39.48 35.07 40.42C34.37 41.34 33.38 42.05 32.1 42.55C30.82 43.05 29.33 43.3 27.63 43.3ZM50.358 48.7C50.158 48.7 49.988 48.63 49.848 48.49C49.708 48.35 49.638 48.18 49.638 47.98V41.17C49.158 41.81 48.538 42.33 47.778 42.73C47.018 43.11 46.098 43.3 45.018 43.3C43.998 43.3 43.088 43.12 42.288 42.76C41.508 42.4 40.848 41.91 40.308 41.29C39.788 40.65 39.388 39.91 39.108 39.07C38.828 38.21 38.668 37.28 38.628 36.28C38.608 35.92 38.598 35.56 38.598 35.2C38.598 34.84 38.608 34.49 38.628 34.15C38.688 33.11 38.848 32.16 39.108 31.3C39.388 30.44 39.788 29.7 40.308 29.08C40.848 28.44 41.508 27.95 42.288 27.61C43.088 27.27 43.998 27.1 45.018 27.1C46.178 27.1 47.148 27.31 47.928 27.73C48.728 28.15 49.358 28.68 49.818 29.32V28.12C49.818 27.92 49.888 27.75 50.028 27.61C50.168 27.47 50.338 27.4 50.538 27.4H52.938C53.138 27.4 53.308 27.47 53.448 27.61C53.588 27.75 53.658 27.92 53.658 28.12V47.98C53.658 48.18 53.588 48.35 53.448 48.49C53.308 48.63 53.138 48.7 52.938 48.7H50.358ZM46.158 40.09C46.958 40.09 47.608 39.91 48.108 39.55C48.608 39.19 48.978 38.74 49.218 38.2C49.478 37.64 49.618 37.06 49.638 36.46C49.678 36.08 49.698 35.69 49.698 35.29C49.698 34.89 49.678 34.51 49.638 34.15C49.618 33.53 49.488 32.93 49.248 32.35C49.008 31.75 48.638 31.26 48.138 30.88C47.638 30.5 46.978 30.31 46.158 30.31C45.318 30.31 44.648 30.5 44.148 30.88C43.648 31.24 43.288 31.72 43.068 32.32C42.868 32.92 42.748 33.58 42.708 34.3C42.668 34.9 42.668 35.5 42.708 36.1C42.748 36.82 42.868 37.48 43.068 38.08C43.288 38.68 43.648 39.17 44.148 39.55C44.648 39.91 45.318 40.09 46.158 40.09ZM63.4458 43.3C62.2258 43.3 61.1658 43.03 60.2658 42.49C59.3858 41.93 58.7058 41.15 58.2258 40.15C57.7458 39.13 57.5058 37.93 57.5058 36.55V28.12C57.5058 27.92 57.5758 27.75 57.7158 27.61C57.8558 27.47 58.0258 27.4 58.2258 27.4H60.8658C61.0858 27.4 61.2558 27.47 61.3758 27.61C61.5158 27.75 61.5858 27.92 61.5858 28.12V36.37C61.5858 38.85 62.6758 40.09 64.8558 40.09C65.8958 40.09 66.7158 39.76 67.3158 39.1C67.9358 38.44 68.2458 37.53 68.2458 36.37V28.12C68.2458 27.92 68.3158 27.75 68.4558 27.61C68.5958 27.47 68.7658 27.4 68.9658 27.4H71.6058C71.8058 27.4 71.9758 27.47 72.1158 27.61C72.2558 27.75 72.3258 27.92 72.3258 28.12V42.28C72.3258 42.48 72.2558 42.65 72.1158 42.79C71.9758 42.93 71.8058 43 71.6058 43H69.1758C68.9558 43 68.7758 42.93 68.6358 42.79C68.5158 42.65 68.4558 42.48 68.4558 42.28V41.05C67.9158 41.75 67.2458 42.3 66.4458 42.7C65.6458 43.1 64.6458 43.3 63.4458 43.3Z" fill="black"/>
<path d="M26.41 71.3C24.63 71.3 23.1 71.01 21.82 70.43C20.54 69.83 19.54 68.92 18.82 67.7C18.1 66.46 17.71 64.92 17.65 63.08C17.63 62.22 17.62 61.37 17.62 60.53C17.62 59.69 17.63 58.83 17.65 57.95C17.71 56.13 18.11 54.61 18.85 53.39C19.59 52.17 20.6 51.25 21.88 50.63C23.18 50.01 24.69 49.7 26.41 49.7C28.13 49.7 29.64 50.01 30.94 50.63C32.24 51.25 33.26 52.17 34 53.39C34.74 54.61 35.14 56.13 35.2 57.95C35.24 58.83 35.26 59.69 35.26 60.53C35.26 61.37 35.24 62.22 35.2 63.08C35.14 64.92 34.75 66.46 34.03 67.7C33.31 68.92 32.3 69.83 31 70.43C29.72 71.01 28.19 71.3 26.41 71.3ZM26.41 67.85C27.71 67.85 28.77 67.47 29.59 66.71C30.41 65.93 30.85 64.67 30.91 62.93C30.95 62.05 30.97 61.24 30.97 60.5C30.97 59.74 30.95 58.93 30.91 58.07C30.87 56.91 30.65 55.97 30.25 55.25C29.87 54.51 29.35 53.98 28.69 53.66C28.03 53.32 27.27 53.15 26.41 53.15C25.57 53.15 24.82 53.32 24.16 53.66C23.5 53.98 22.97 54.51 22.57 55.25C22.19 55.97 21.98 56.91 21.94 58.07C21.92 58.93 21.91 59.74 21.91 60.5C21.91 61.24 21.92 62.05 21.94 62.93C22 64.67 22.44 65.93 23.26 66.71C24.08 67.47 25.13 67.85 26.41 67.85ZM39.5594 71C39.3594 71 39.1894 70.93 39.0494 70.79C38.9094 70.65 38.8394 70.48 38.8394 70.28V56.12C38.8394 55.92 38.9094 55.75 39.0494 55.61C39.1894 55.47 39.3594 55.4 39.5594 55.4H42.0194C42.2194 55.4 42.3894 55.47 42.5294 55.61C42.6694 55.75 42.7394 55.92 42.7394 56.12V57.35C43.2594 56.71 43.9194 56.18 44.7194 55.76C45.5394 55.32 46.5494 55.1 47.7494 55.1C48.9694 55.1 50.0294 55.38 50.9294 55.94C51.8294 56.48 52.5194 57.25 52.9994 58.25C53.4994 59.25 53.7494 60.45 53.7494 61.85V70.28C53.7494 70.48 53.6794 70.65 53.5394 70.79C53.3994 70.93 53.2294 71 53.0294 71H50.3894C50.1894 71 50.0194 70.93 49.8794 70.79C49.7394 70.65 49.6694 70.48 49.6694 70.28V62.03C49.6694 60.87 49.3794 59.96 48.7994 59.3C48.2394 58.64 47.4194 58.31 46.3394 58.31C45.2994 58.31 44.4694 58.64 43.8494 59.3C43.2294 59.96 42.9194 60.87 42.9194 62.03V70.28C42.9194 70.48 42.8494 70.65 42.7094 70.79C42.5694 70.93 42.3994 71 42.1994 71H39.5594ZM64.2801 71.3C62.0601 71.3 60.3001 70.66 59.0001 69.38C57.7001 68.1 57.0001 66.28 56.9001 63.92C56.8801 63.72 56.8701 63.47 56.8701 63.17C56.8701 62.85 56.8801 62.6 56.9001 62.42C56.9801 60.92 57.3201 59.62 57.9201 58.52C58.5401 57.42 59.3901 56.58 60.4701 56C61.5501 55.4 62.8201 55.1 64.2801 55.1C65.9001 55.1 67.2601 55.44 68.3601 56.12C69.4601 56.78 70.2901 57.71 70.8501 58.91C71.4101 60.09 71.6901 61.46 71.6901 63.02V63.65C71.6901 63.85 71.6201 64.02 71.4801 64.16C71.3401 64.3 71.1601 64.37 70.9401 64.37H60.9801C60.9801 64.37 60.9801 64.4 60.9801 64.46C60.9801 64.52 60.9801 64.57 60.9801 64.61C61.0001 65.31 61.1301 65.96 61.3701 66.56C61.6301 67.14 62.0001 67.61 62.4801 67.97C62.9801 68.33 63.5701 68.51 64.2501 68.51C64.8101 68.51 65.2801 68.43 65.6601 68.27C66.0401 68.09 66.3501 67.89 66.5901 67.67C66.8301 67.45 67.0001 67.27 67.1001 67.13C67.2801 66.89 67.4201 66.75 67.5201 66.71C67.6401 66.65 67.8101 66.62 68.0301 66.62H70.6101C70.8101 66.62 70.9701 66.68 71.0901 66.8C71.2301 66.92 71.2901 67.07 71.2701 67.25C71.2501 67.57 71.0801 67.96 70.7601 68.42C70.4601 68.88 70.0201 69.33 69.4401 69.77C68.8601 70.21 68.1301 70.58 67.2501 70.88C66.3901 71.16 65.4001 71.3 64.2801 71.3ZM60.9801 61.85H67.6101V61.76C67.6101 60.98 67.4801 60.3 67.2201 59.72C66.9601 59.14 66.5801 58.68 66.0801 58.34C65.5801 58 64.9801 57.83 64.2801 57.83C63.5801 57.83 62.9801 58 62.4801 58.34C61.9801 58.68 61.6001 59.14 61.3401 59.72C61.1001 60.3 60.9801 60.98 60.9801 61.76V61.85Z" fill="black"/>
</svg>
